<svg  width="108" height="80" viewBox="0 0 108 80" fill="none" xmlns="http://www.w3.org/2000/svg">
<g clip-path="url(#clip0_1_176)">
<path d="M24.7767 12.3041C25.0811 12.4259 25.3855 12.4259 25.629 12.1823C25.9334 11.8779 25.9334 11.3909 25.629 11.1473L24.1069 9.56438C23.9852 9.44261 23.9852 9.25996 24.1069 9.1382C24.2287 9.01643 24.4114 9.01643 24.5331 9.1382L26.0552 10.7212C26.6031 11.2691 26.5423 12.1215 25.9943 12.6694C25.5681 13.0956 24.8984 13.1565 24.4114 12.9129C24.3505 12.7912 24.2896 12.6085 24.3505 12.4259C24.4114 12.3041 24.594 12.2432 24.7767 12.3041Z" fill="#737373"/>
<path d="M25.1434 13.1557C24.8999 13.1557 24.6564 13.0948 24.4128 12.973C24.2911 12.9121 24.2302 12.8512 24.2302 12.7295C24.1693 12.6077 24.2302 12.4859 24.2911 12.4251C24.352 12.3033 24.4128 12.2424 24.5346 12.2424C24.6564 12.1815 24.7781 12.2424 24.839 12.3033C25.0826 12.4251 25.387 12.3642 25.5696 12.1815C25.6914 12.0598 25.7523 11.938 25.7523 11.7554C25.7523 11.5727 25.6914 11.4509 25.5696 11.3292L24.0475 9.74622C23.9867 9.68534 23.9258 9.56357 23.9258 9.4418C23.9258 9.32004 23.9867 9.19827 24.0475 9.13739C24.1084 9.07651 24.2302 9.01562 24.352 9.01562C24.4737 9.01562 24.5955 9.07651 24.6564 9.13739L26.1784 10.7203C26.422 11.0248 26.6046 11.3901 26.6046 11.7554C26.6046 12.1206 26.422 12.5468 26.1784 12.7904C25.874 12.973 25.5087 13.1557 25.1434 13.1557ZM24.5955 12.4251C24.4737 12.4251 24.4737 12.4859 24.4128 12.5468C24.4128 12.6077 24.4128 12.6077 24.4128 12.6686C24.4128 12.7295 24.4737 12.7295 24.4737 12.7904C24.9608 13.0339 25.5087 12.973 25.9349 12.6077C26.1784 12.3642 26.3002 12.0598 26.3002 11.7554C26.3002 11.4509 26.1784 11.0856 25.9349 10.903L24.4128 9.32004C24.352 9.25916 24.352 9.25916 24.2911 9.25916C24.2302 9.25916 24.1693 9.25916 24.1693 9.32004C24.1084 9.38092 24.1084 9.38092 24.1084 9.4418C24.1084 9.50269 24.1084 9.50269 24.1693 9.56357L25.6914 11.1465C25.874 11.3292 25.9349 11.5118 25.9349 11.7554C25.9349 11.9989 25.8131 12.1815 25.6914 12.3642C25.4479 12.6077 25.0217 12.6686 24.6564 12.4859C24.6564 12.4251 24.6564 12.4251 24.5955 12.4251Z" fill="#737373"/>
<path d="M31.5399 8.52343C30.7484 8.94961 29.8352 8.70608 29.409 7.9146L28.4348 6.20988C28.374 6.08812 28.374 5.90547 28.5566 5.7837C28.6784 5.72282 28.861 5.72282 28.9828 5.90547L29.9569 7.61019C30.2005 8.09725 30.8093 8.21901 31.2963 7.97548C31.7834 7.73195 31.9052 7.12312 31.6616 6.63606L30.6875 4.93134C30.6266 4.80958 30.6875 4.62693 30.8093 4.50516C30.931 4.44428 31.1137 4.44428 31.2355 4.62693L32.2096 6.33165C32.5749 7.12312 32.3313 8.09725 31.5399 8.52343Z" fill="#737373"/>
<path d="M30.7462 8.82726C30.1374 8.82726 29.5894 8.52284 29.285 7.9749L28.3109 6.27018C28.25 6.14841 28.25 6.02665 28.25 5.96577C28.25 5.844 28.3718 5.78312 28.4326 5.72223C28.5544 5.66135 28.6762 5.66135 28.7371 5.66135C28.8588 5.66135 28.9197 5.78312 28.9806 5.844L29.9547 7.54872C30.0765 7.73137 30.2591 7.91402 30.4418 7.9749C30.6853 8.03578 30.868 8.03578 31.1115 7.91402C31.2941 7.79225 31.4768 7.6096 31.5377 7.42695C31.5986 7.18342 31.5377 7.00077 31.4768 6.75724L30.5027 5.05252C30.3809 4.86987 30.4418 4.56546 30.6853 4.4437C30.868 4.32193 31.1724 4.38281 31.2333 4.62634L32.2074 6.33106C32.6944 7.12254 32.39 8.15755 31.5986 8.64461C31.355 8.76637 31.0506 8.82726 30.7462 8.82726ZM28.6762 5.90488C28.6153 5.90488 28.6153 5.90488 28.5544 5.90488C28.4935 5.90488 28.4935 5.96577 28.4935 6.02665C28.4935 6.08753 28.4935 6.14841 28.4935 6.14841L29.4677 7.85313C29.8938 8.52284 30.7462 8.76637 31.4768 8.40108C32.1465 7.9749 32.39 7.12254 32.0247 6.39195L31.0506 4.74811C30.9897 4.68723 30.868 4.62634 30.8071 4.68723C30.7462 4.74811 30.6853 4.86988 30.7462 4.93076L31.7203 6.63548C31.8421 6.87901 31.903 7.18342 31.8421 7.48784C31.7812 7.79225 31.5986 8.03578 31.355 8.15755C31.1115 8.27931 30.8071 8.34019 30.5027 8.27931C30.1982 8.21843 29.9547 8.03578 29.833 7.79225L28.8588 6.08753C28.8588 5.96577 28.7979 5.96577 28.6762 5.90488C28.7371 5.90488 28.7371 5.90488 28.6762 5.90488Z" fill="#737373"/>
<path d="M37.3184 5.60019C37.3793 5.78284 37.2576 5.90461 37.1358 5.96549C36.9531 6.02637 36.8314 5.90461 36.7705 5.78284L35.8572 2.7387C35.7964 2.67782 35.8572 2.55605 35.9181 2.43429C36.0399 2.31252 36.2225 2.25164 36.3443 2.3734L38.7796 4.19989L38.1099 2.06899C38.049 1.94723 38.1708 1.76458 38.2926 1.70369C38.4752 1.64281 38.597 1.76458 38.6579 1.88634L39.5711 4.93048C39.632 5.11313 39.5102 5.2349 39.3884 5.29578C39.3276 5.29578 39.2058 5.29578 39.1449 5.2349C39.1449 5.2349 39.1449 5.2349 39.084 5.2349L36.7096 3.40841L37.3184 5.60019Z" fill="#737373"/>
<path d="M37.0131 6.14778C36.8304 6.14778 36.6478 6.02602 36.5869 5.84337L35.6737 2.79923C35.6128 2.67746 35.6737 2.49481 35.7345 2.43393C35.8563 2.25128 36.1607 2.1904 36.3434 2.37305L38.4743 3.956L37.9263 2.1904C37.8654 2.06863 37.9263 1.94687 37.9263 1.88599C37.9872 1.76422 38.0481 1.70334 38.1699 1.70334C38.4134 1.64245 38.6569 1.76422 38.7178 1.94687L39.631 4.99101C39.6919 5.23454 39.5702 5.47807 39.3266 5.53895C39.2049 5.59984 39.0831 5.53895 38.9613 5.47807C38.9613 5.47807 38.9004 5.47807 38.9004 5.41719L36.8304 3.83424L37.3784 5.66072C37.4393 5.90425 37.3175 6.14778 37.1348 6.20866C37.1348 6.14778 37.074 6.14778 37.0131 6.14778ZM36.0998 2.49481C36.039 2.49481 35.9781 2.49481 35.9781 2.5557C35.9172 2.61658 35.9172 2.67746 35.9172 2.73835L36.8304 5.78249C36.8304 5.90425 36.9522 5.90425 37.074 5.90425C37.1348 5.90425 37.1957 5.78249 37.1957 5.66072L36.4042 3.10364L39.144 5.17366C39.2049 5.17366 39.2657 5.23454 39.2657 5.17366C39.3875 5.17366 39.3875 5.05189 39.3875 4.93013L38.4743 1.88599C38.4134 1.8251 38.3525 1.8251 38.2307 1.8251C38.1699 1.8251 38.1699 1.88599 38.109 1.88599C38.109 1.94687 38.109 1.94687 38.109 2.00775L38.9004 4.50395L36.1607 2.49481H36.0998Z" fill="#737373"/>
<path d="M43.891 4.01136L43.4648 0.845458C43.4648 0.66281 43.5257 0.541044 43.7084 0.480162C43.891 0.480162 44.0128 0.601927 44.0737 0.723693L44.3172 2.24576L45.8393 0.23663C45.961 0.114865 46.1437 0.053982 46.2655 0.175748C46.3872 0.297513 46.4481 0.480162 46.3263 0.601927L45.2913 1.94135L46.6916 3.34165C46.8134 3.46342 46.8134 3.64607 46.6916 3.76783C46.6307 3.82872 46.5699 3.82872 46.509 3.8896C46.4481 3.8896 46.3263 3.8896 46.2655 3.82872L44.8651 2.48929L44.3781 3.159L44.4998 3.95048C44.4998 4.13313 44.439 4.2549 44.2563 4.31578C44.0737 4.2549 43.891 4.13313 43.891 4.01136Z" fill="#737373"/>
<path d="M44.1961 4.38151C44.0135 4.38151 43.8308 4.19886 43.7699 4.01621L43.3438 0.850306C43.3438 0.72854 43.3438 0.606775 43.4046 0.545892C43.4655 0.424126 43.5873 0.363243 43.7091 0.363243C43.9526 0.302361 44.1352 0.485009 44.1961 0.72854L44.3788 2.00708L45.6573 0.241478C45.7791 0.0588293 46.0835 -0.00205351 46.2661 0.180595C46.4488 0.302361 46.5097 0.606775 46.327 0.789423L45.3529 2.06796L46.6923 3.40738C46.8141 3.40738 46.875 3.46827 46.875 3.59003C46.875 3.7118 46.8141 3.83356 46.7532 3.89445C46.6923 3.95533 46.6314 4.01621 46.5097 4.01621C46.3879 4.01621 46.2661 4.01621 46.2052 3.89445L44.9267 2.61591L44.5614 3.10297L44.6832 3.83356C44.6223 4.13798 44.5005 4.32063 44.1961 4.38151ZM44.0135 3.95533C44.0135 4.07709 44.1352 4.13798 44.1961 4.13798C44.3179 4.13798 44.3788 4.01621 44.3179 3.95533L44.1961 3.16385L44.8049 2.37238L46.2661 3.83356C46.327 3.89445 46.327 3.89445 46.3879 3.89445C46.4488 3.89445 46.4488 3.89445 46.5097 3.83356C46.6314 3.7118 46.6314 3.65091 46.6314 3.65091C46.6314 3.59003 46.6314 3.59003 46.5705 3.52915L45.0485 2.00708L46.1444 0.606775C46.2052 0.545892 46.2052 0.424126 46.0835 0.363243C46.0226 0.302361 45.9008 0.30236 45.8399 0.424126L44.1352 2.67679L43.8917 0.850306C43.8917 0.667657 43.8308 0.606775 43.7091 0.606775C43.6482 0.606775 43.6482 0.667657 43.5873 0.667657C43.5873 0.72854 43.5264 0.72854 43.5264 0.789423L44.0135 3.95533Z" fill="#737373"/>
<path d="M60.6365 2.92399C60.7583 2.80223 60.9409 2.80223 61.0627 2.92399C61.3062 3.16752 61.6715 3.41105 62.0368 3.47194C62.2803 3.53282 62.5847 3.47194 62.7674 3.35017C62.95 3.22841 63.0109 3.10664 63.0718 2.98487C63.0718 2.92399 63.0718 2.86311 63.0718 2.80223C63.0718 2.74134 63.0109 2.68046 62.95 2.61958C62.8283 2.49781 62.5239 2.37605 62.2194 2.25428C61.9759 2.1934 61.7324 2.07163 61.5497 1.94987C61.3671 1.8281 61.1844 1.64545 61.1235 1.4628C61.0627 1.34104 61.0627 1.15839 61.0627 0.975742C61.1236 0.671328 61.3062 0.366914 61.6106 0.245148C61.915 0.123383 62.2194 0.0625 62.5847 0.0625C63.1327 0.123383 63.4371 0.427797 63.6806 0.671328C63.8024 0.793094 63.8024 0.975742 63.6806 1.03662C63.5589 1.15839 63.3762 1.15839 63.3153 1.09751C63.0718 0.853976 62.8283 0.671328 62.463 0.610445C62.2194 0.549562 61.9759 0.610445 61.8541 0.732211C61.6715 0.793094 61.6106 0.914859 61.6106 1.03662C61.6106 1.09751 61.6106 1.15839 61.6106 1.21927C61.6106 1.28016 61.6715 1.34104 61.7324 1.40192C61.8541 1.52369 62.0977 1.64545 62.4021 1.70634C62.6456 1.76722 62.8891 1.88898 63.1327 2.01075C63.3153 2.13252 63.498 2.31516 63.6197 2.55869C63.6806 2.68046 63.7415 2.86311 63.6806 3.04576C63.6197 3.41105 63.3762 3.65459 63.1327 3.83723C62.8283 4.01988 62.463 4.08076 62.0977 4.01988C61.4888 3.959 61.0627 3.5937 60.7583 3.28929C60.5147 3.22841 60.5756 3.04576 60.6365 2.92399Z" fill="#737373"/>
<path d="M62.22 4.13942C62.1592 4.13942 62.0374 4.13942 61.9765 4.13942C61.3677 4.07854 60.8806 3.71324 60.5762 3.40883C60.3936 3.22618 60.4544 2.98265 60.5762 2.86089C60.6371 2.8 60.7589 2.73912 60.8806 2.73912C61.0024 2.73912 61.0633 2.8 61.185 2.86089C61.3677 3.04353 61.733 3.34795 62.0983 3.34795C62.3418 3.34795 62.5853 3.34795 62.7071 3.22618C62.8289 3.1653 62.8898 3.04353 62.9506 2.98265C62.9506 2.92177 62.9506 2.92177 62.9506 2.86089C62.9506 2.8 62.8898 2.73912 62.8289 2.73912C62.7071 2.61735 62.4636 2.49559 62.1592 2.43471C61.8548 2.31294 61.6112 2.25206 61.4286 2.13029C61.185 2.00853 61.0024 1.82588 60.9415 1.58235C60.8806 1.3997 60.8197 1.21705 60.8806 1.0344C60.9415 0.669104 61.1242 0.425573 61.4895 0.182042C61.7939 -0.000606451 62.1592 -0.0614893 62.5245 -0.000606447C63.0724 0.0602764 63.4377 0.36469 63.6812 0.608222C63.803 0.669104 63.803 0.79087 63.803 0.912636C63.803 1.0344 63.803 1.09528 63.6812 1.21705C63.6204 1.27793 63.4986 1.33882 63.4377 1.33882C63.3159 1.33882 63.1942 1.33882 63.1333 1.21705C62.8898 1.0344 62.6462 0.851753 62.3418 0.79087C62.1592 0.79087 61.9156 0.79087 61.7939 0.912636C61.6721 0.973518 61.6112 1.0344 61.6112 1.15617C61.6112 1.21705 61.6112 1.21705 61.6112 1.21705C61.6112 1.21705 61.6721 1.27793 61.733 1.33882C61.8548 1.46058 62.0983 1.58235 62.3418 1.64323C62.6462 1.76499 62.8898 1.82588 63.0724 2.00853C63.3159 2.19117 63.4986 2.37382 63.6204 2.55647C63.6812 2.73912 63.7421 2.92177 63.6812 3.10442C63.6204 3.46971 63.3768 3.77413 63.0724 3.95678C62.8289 4.07854 62.5245 4.13942 62.22 4.13942ZM60.7589 2.98265C60.698 3.04353 60.698 3.1653 60.7589 3.22618C61.0024 3.46971 61.4286 3.83501 61.9765 3.89589C62.3418 3.95678 62.6462 3.89589 62.9506 3.71324C63.2551 3.5306 63.4377 3.28707 63.4377 3.04353C63.4377 2.92177 63.4377 2.73912 63.3768 2.61735C63.3159 2.43471 63.1333 2.31294 62.9506 2.13029C62.768 2.00853 62.5853 1.94764 62.2809 1.82588C61.9765 1.70411 61.733 1.58235 61.5503 1.46058C61.4895 1.3997 61.4286 1.33882 61.3677 1.27793C61.3068 1.21705 61.3068 1.15617 61.3677 1.0344C61.3677 0.912636 61.4286 0.729987 61.6721 0.608222C61.8548 0.486456 62.0983 0.425573 62.4027 0.486456C62.768 0.547339 63.0115 0.729987 63.3159 0.973518C63.3768 0.973518 63.3768 1.0344 63.4377 1.0344C63.4986 1.0344 63.4986 1.0344 63.5595 0.973518C63.5595 0.912636 63.6204 0.912636 63.6204 0.851753C63.6204 0.79087 63.6204 0.79087 63.5595 0.729987C63.3159 0.547339 62.9506 0.242925 62.5245 0.182042C62.22 0.121159 61.8547 0.182042 61.6112 0.36469C61.3677 0.486456 61.185 0.729987 61.1242 1.0344C61.1242 1.15617 61.1242 1.33882 61.185 1.3997C61.2459 1.58235 61.4286 1.70411 61.6112 1.82588C61.7939 1.94764 61.9765 2.00853 62.2809 2.13029C62.6462 2.25206 62.8898 2.37382 63.0724 2.49559C63.1333 2.55647 63.1942 2.61735 63.2551 2.73912C63.3159 2.8 63.3159 2.92177 63.3159 2.98265C63.3159 3.10442 63.2551 3.28707 62.9506 3.40883C62.768 3.5306 62.4636 3.59148 62.1592 3.5306C61.733 3.46971 61.3677 3.22618 61.1242 2.92177C61.1242 2.86089 61.0633 2.86089 61.0024 2.86089C60.8197 2.98265 60.7589 2.98265 60.7589 2.98265Z" fill="#737373"/>
<path d="M67.695 3.04295C67.9994 2.00794 69.0953 1.39911 70.1912 1.70352C70.6782 1.82529 71.0435 2.1297 71.287 2.43412C71.4088 2.55588 71.3479 2.73853 71.2262 2.8603C71.1044 2.98206 70.8609 2.92118 70.8 2.79941C70.6173 2.55588 70.3738 2.37323 70.0085 2.25147C69.6432 2.1297 69.2779 2.19059 68.9735 2.37323C68.6691 2.55588 68.4255 2.79941 68.3038 3.16471C68.182 3.53001 68.2429 3.8953 68.4255 4.19972C68.6082 4.50413 68.9126 4.74766 69.2779 4.86943C69.5823 4.99119 69.8867 4.93031 70.1912 4.80855C70.3129 4.74766 70.4956 4.80855 70.6173 4.99119C70.6782 5.17384 70.6173 5.35649 70.4347 5.41737C70.0085 5.60002 69.5823 5.60002 69.0953 5.47826C68.0603 5.23473 67.3905 4.13884 67.695 3.04295Z" fill="#737373"/>
<path d="M69.6436 5.72636C69.461 5.72636 69.2174 5.72636 69.0348 5.66547C67.9389 5.36106 67.2692 4.20429 67.5736 3.04751C67.878 1.95162 69.0957 1.28191 70.1916 1.64721C70.6786 1.76897 71.0439 2.07339 71.3483 2.43868C71.4701 2.62133 71.4092 2.92575 71.2266 3.04751C71.0439 3.16928 70.7395 3.16928 70.6177 2.98663C70.4351 2.7431 70.1916 2.56045 69.948 2.49957C69.6436 2.43868 69.2783 2.43868 68.9739 2.62133C68.6695 2.80398 68.4868 3.04751 68.3651 3.35193C68.3042 3.65634 68.3042 4.02164 68.4868 4.26517C68.6695 4.56958 68.913 4.75223 69.2783 4.874C69.5827 4.93488 69.8871 4.93488 70.1307 4.81311C70.3742 4.75223 70.6177 4.874 70.6786 5.05665C70.7395 5.30018 70.6786 5.54371 70.4351 5.60459C70.1915 5.66547 69.948 5.72636 69.6436 5.72636ZM67.8171 3.1084C67.5127 4.08252 68.1215 5.11753 69.0957 5.42194C69.5218 5.54371 69.948 5.54371 70.3742 5.36106C70.4351 5.30018 70.496 5.17841 70.496 5.11753C70.4351 4.99576 70.3133 4.99576 70.2524 4.99576C69.948 5.11753 69.5827 5.11753 69.2783 5.05665C68.913 4.93488 68.5477 4.69135 68.3651 4.32605C68.1824 3.96075 68.1215 3.59546 68.2433 3.23016C68.3651 2.86486 68.6086 2.56045 68.9739 2.3778C69.3392 2.19515 69.7654 2.13427 70.1307 2.25604C70.496 2.3778 70.7395 2.56045 70.983 2.86486C71.0439 2.92575 71.1657 2.98663 71.2266 2.92575C71.2874 2.86486 71.3483 2.7431 71.2874 2.68222C71.0439 2.31692 70.6786 2.07339 70.2524 1.95162C69.1565 1.58633 68.1215 2.13427 67.8171 3.1084Z" fill="#737373"/>
<path d="M76.2808 7.55077L75.124 6.94194L74.5761 7.42901C74.4543 7.48989 74.3326 7.55077 74.2108 7.48989C74.1499 7.48989 74.1499 7.42901 74.1499 7.42901C74.0282 7.30724 74.0282 7.12459 74.1499 7.00283L76.707 4.75016C76.8288 4.68928 76.9505 4.6284 77.0723 4.68928C77.1941 4.75016 77.2549 4.87193 77.2549 4.99369L76.8288 8.40313C76.8288 8.58578 76.6461 8.70755 76.4635 8.64666C76.4635 8.64666 76.4026 8.64666 76.3417 8.58578C76.2199 8.5249 76.159 8.40313 76.159 8.28137L76.2808 7.55077ZM76.3417 6.88106L76.5243 5.66341L75.6111 6.51577L76.3417 6.88106Z" fill="#737373"/>
<path d="M76.463 8.70804C76.3413 8.70804 76.2804 8.64715 76.2804 8.64715C76.0977 8.58627 76.0369 8.40362 76.0369 8.22097L76.0977 7.55126L75.0627 7.00332L74.5757 7.4295C74.4539 7.55126 74.2712 7.55126 74.0886 7.49038C74.0277 7.49038 74.0277 7.4295 73.9668 7.4295C73.7842 7.24685 73.8451 7.00332 73.9668 6.82067L76.5239 4.50712C76.6457 4.38536 76.8892 4.38536 77.011 4.44624C77.1327 4.50712 77.2545 4.68977 77.2545 4.87242L76.8283 8.28186C76.8283 8.58627 76.6457 8.70804 76.463 8.70804ZM75.0627 6.75979L76.4021 7.4295L76.2804 8.28186C76.2804 8.34274 76.2804 8.40362 76.4021 8.46451H76.463C76.5848 8.46451 76.6457 8.40362 76.6457 8.28186L77.0719 4.87242C77.0719 4.81154 77.011 4.75065 76.9501 4.68977C76.8892 4.62889 76.7674 4.62889 76.7066 4.68977L74.1495 6.94244C74.0886 7.00332 74.0886 7.12508 74.1495 7.18597C74.1495 7.18597 74.1495 7.18597 74.2104 7.24685C74.2713 7.30773 74.3321 7.24685 74.393 7.24685L75.0627 6.75979ZM76.463 7.0642L75.3671 6.51626L76.7066 5.35948L76.463 7.0642ZM75.7933 6.45537L76.2804 6.6989L76.4021 5.96831L75.7933 6.45537Z" fill="#737373"/>
<path d="M80.3613 11.0239C80.2395 11.1457 80.0568 11.1457 79.9351 11.0239C79.8133 10.9022 79.8133 10.7195 79.9351 10.5978L82.066 8.22333C82.1269 8.16245 82.2486 8.10156 82.3095 8.10156C82.4921 8.10156 82.6139 8.28421 82.553 8.40598L82.2486 11.3892L83.7707 9.7454C83.8925 9.62363 84.0751 9.62363 84.1969 9.7454C84.3186 9.86716 84.3186 10.0498 84.1969 10.1716L82.066 12.546C81.9442 12.6678 81.7616 12.6678 81.6398 12.546C81.5789 12.4851 81.518 12.4242 81.518 12.3025V12.2416L81.8224 9.25834L80.3613 11.0239Z" fill="#737373"/>
<path d="M81.8219 12.79C81.7001 12.79 81.6392 12.7291 81.5175 12.6682C81.4566 12.6073 81.3957 12.4856 81.3957 12.3638V12.3029L81.7001 9.74585L80.4216 11.1461C80.2389 11.3288 79.9954 11.3288 79.8128 11.207C79.6301 11.0244 79.6301 10.7809 79.8128 10.5982L81.9437 8.22378C82.0045 8.10201 82.1872 8.04113 82.309 8.10201C82.5525 8.16289 82.7351 8.34554 82.6743 8.58907L82.3698 11.207L83.6484 9.80673C83.7093 9.74585 83.831 9.68496 83.9528 9.68496C84.0746 9.68496 84.1963 9.74585 84.2572 9.80673C84.3181 9.86761 84.379 9.98938 84.379 10.1111C84.379 10.2329 84.3181 10.3547 84.2572 10.4156L82.1263 12.79C82.0654 12.7291 81.9437 12.79 81.8219 12.79ZM82.0045 9.01525L81.6393 12.3638C81.6393 12.4247 81.6392 12.4856 81.7001 12.4856C81.761 12.5465 81.8828 12.5465 81.9437 12.4856L84.0746 10.1111C84.0746 10.0503 84.1354 10.0503 84.1354 9.98938C84.1354 9.92849 84.1354 9.86761 84.0746 9.86761C84.0137 9.80673 84.0137 9.80673 83.9528 9.80673C83.8919 9.80673 83.8919 9.80673 83.831 9.86761L82.0654 11.8159L82.4307 8.46731C82.4307 8.34554 82.3698 8.28466 82.2481 8.28466C82.1872 8.28466 82.1263 8.28466 82.1263 8.34554L79.9954 10.72C79.9345 10.7809 79.9345 10.9026 79.9954 10.9635C80.0563 11.0244 80.1781 11.0244 80.2389 10.9635L82.0045 9.01525Z" fill="#737373"/>
<path d="M18.3265 64.1679L21.0053 62.4023C21.1271 62.2805 21.3097 62.3414 21.4315 62.4632L22.4056 63.9244C22.4665 64.0461 22.4665 64.2288 22.3447 64.3506C22.223 64.4723 22.0403 64.4114 21.9186 64.2897L21.0662 63.072L20.2138 63.62L20.9444 64.655C21.0053 64.7767 21.0053 64.9594 20.8836 65.0812C20.7618 65.2029 20.5791 65.142 20.4574 65.0203L19.7268 63.9853L18.8744 64.5332L19.7268 65.7509C19.7877 65.8726 19.7877 66.0553 19.6659 66.177C19.5441 66.2379 19.3615 66.2379 19.2397 66.1162L18.2656 64.655C18.1438 64.4114 18.2047 64.2288 18.3265 64.1679Z" fill="#737373"/>
<path d="M19.4825 66.2995H19.4216C19.2999 66.2995 19.239 66.2386 19.1781 66.1169L18.204 64.6557C18.0822 64.473 18.1431 64.2295 18.3257 64.1077L21.0046 62.3421C21.1263 62.2812 21.1872 62.2813 21.309 62.2813C21.4308 62.2813 21.4916 62.3421 21.5525 62.4639L22.5267 63.9251C22.6484 64.1077 22.5875 64.3513 22.4049 64.5339C22.2222 64.6557 21.9178 64.5948 21.7961 64.4121L21.0655 63.2554L20.4566 63.6816L21.1263 64.6557C21.2481 64.8383 21.1872 65.1427 21.0046 65.2645C20.8219 65.3863 20.5175 65.3254 20.3958 65.1427L19.726 64.1686L19.1172 64.5948L19.8478 65.7516C19.9696 65.9342 19.9087 66.2386 19.726 66.3604C19.6652 66.2995 19.6043 66.2995 19.4825 66.2995ZM18.4475 64.5948L19.3607 65.9951C19.3607 66.056 19.4216 66.056 19.4825 66.056C19.5434 66.056 19.6043 66.056 19.6043 66.056C19.6652 65.9951 19.726 65.8733 19.6652 65.8124L18.7519 64.473L19.7869 63.8033L20.5784 64.9601C20.6393 65.021 20.7611 65.0819 20.8219 65.021C20.8828 64.9601 20.9437 64.8383 20.8828 64.7774L20.0913 63.6207L21.1263 62.951L22.0396 64.2904C22.1005 64.3513 22.2222 64.4121 22.2831 64.3513C22.344 64.2904 22.4049 64.1686 22.344 64.1077L21.3699 62.6465C21.309 62.5857 21.309 62.5857 21.2481 62.5857C21.1872 62.5857 21.1263 62.5857 21.1263 62.5857L18.4475 64.3513C18.3866 64.4121 18.3257 64.473 18.3866 64.5339L18.6302 64.5948H18.4475Z" fill="#737373"/>
<path d="M23.5028 68.4898C23.6246 68.368 23.8072 68.368 23.9899 68.4898L24.7205 69.2204C24.8423 69.3421 24.8423 69.5248 24.7205 69.7074C24.5987 69.8292 24.4161 69.8292 24.2943 69.7074L23.5637 68.9768C23.3811 68.7942 23.3811 68.6115 23.5028 68.4898Z" fill="#737373"/>
<path d="M24.4771 69.833C24.3553 69.833 24.2336 69.7721 24.1727 69.7112L23.4421 68.9806C23.3812 68.9197 23.3203 68.7979 23.3203 68.6762C23.3203 68.5544 23.3812 68.4327 23.4421 68.3718C23.503 68.3109 23.6247 68.25 23.7465 68.25C23.8683 68.25 23.99 68.3109 24.0509 68.3718L24.7815 69.1024C24.9641 69.285 24.9641 69.5285 24.7815 69.7112C24.7206 69.7721 24.5989 69.833 24.4771 69.833ZM23.7465 68.4935C23.6856 68.4935 23.6247 68.4935 23.6247 68.5544C23.5638 68.6153 23.5638 68.6153 23.5638 68.6762C23.5638 68.7371 23.5638 68.7979 23.6247 68.7979L24.3553 69.5285C24.4162 69.5894 24.538 69.5894 24.6597 69.5285C24.7206 69.4677 24.7206 69.3459 24.6597 69.2241L23.9291 68.4935C23.8074 68.4935 23.7465 68.4935 23.7465 68.4935Z" fill="#737373"/>
<path d="M31.8417 72.2582L30.2588 75.0588C30.1979 75.1806 30.0152 75.2415 29.8326 75.1806C29.7108 75.1197 29.6499 74.9371 29.7108 74.7544L30.8676 72.7453L29.6499 73.2932C29.5282 73.3541 29.4673 73.3541 29.3455 73.2932C29.2846 73.2324 29.2238 73.1715 29.1629 73.0497L29.0411 71.7103L27.8843 73.7194C27.8234 73.8412 27.6408 73.9021 27.4581 73.8412C27.3364 73.7803 27.2755 73.5977 27.3364 73.415L28.9193 70.6144C28.9802 70.4926 29.1629 70.4318 29.3455 70.4926C29.4064 70.5535 29.4673 70.6144 29.4673 70.7362L29.6499 72.5626L31.3546 71.7712C31.4764 71.7103 31.5373 71.7103 31.6591 71.7712C31.8417 71.8929 31.9026 72.0756 31.8417 72.2582Z" fill="#737373"/>
<path d="M29.9546 75.3081C29.8937 75.3081 29.8328 75.3081 29.7719 75.2472C29.5893 75.1255 29.5284 74.8819 29.5893 74.6993L30.5634 73.0555L29.6502 73.4816C29.5284 73.5425 29.4066 73.5425 29.2849 73.4816C29.1631 73.4208 29.1022 73.299 29.0413 73.1772L28.9196 72.2031L27.9454 73.8469C27.8846 73.9687 27.8237 74.0296 27.7019 74.0296C27.5801 74.0296 27.4584 74.0296 27.3975 73.9687C27.2757 73.9078 27.2148 73.8469 27.2148 73.7252C27.2148 73.6034 27.2148 73.4816 27.2757 73.4208L28.8587 70.6202C28.9196 70.4984 28.9804 70.4375 29.1022 70.4375C29.224 70.4375 29.3457 70.4375 29.4066 70.4984C29.5284 70.5593 29.5893 70.681 29.6502 70.8028L29.8328 72.5075L31.3549 71.8378C31.4766 71.7769 31.5984 71.7769 31.7202 71.8378C31.9028 71.9596 32.0246 72.2031 31.9028 72.4466L30.3199 75.2472C30.259 75.2472 30.0763 75.3081 29.9546 75.3081ZM31.1113 72.5075L29.7719 74.8211C29.711 74.8819 29.7719 75.0037 29.8328 75.0646C29.8937 75.1255 30.0155 75.0646 30.0763 75.0037L31.6593 72.2031C31.7202 72.1422 31.6593 72.0205 31.5984 71.9596C31.5375 71.8987 31.4766 71.8987 31.4158 71.9596L29.5893 72.8119L29.4066 70.8028C29.4066 70.7419 29.3457 70.681 29.3457 70.681C29.2849 70.6201 29.224 70.6201 29.224 70.681C29.1631 70.681 29.1631 70.7419 29.1022 70.7419L27.5193 73.5425C27.5193 73.6034 27.5193 73.6034 27.5193 73.6643C27.5193 73.7252 27.5801 73.7252 27.5801 73.7861C27.641 73.7861 27.7019 73.8469 27.7019 73.7861C27.7628 73.7861 27.7628 73.7252 27.8237 73.7252L29.1631 71.4116L29.3457 73.1163C29.3457 73.1772 29.4066 73.2381 29.4675 73.2381C29.5284 73.299 29.5893 73.299 29.6502 73.2381L31.1113 72.5075Z" fill="#737373"/>
<path d="M36.5895 76.8973L35.311 76.4711L34.8239 77.08C34.763 77.2017 34.5804 77.2017 34.5195 77.2017C34.4586 77.2017 34.4586 77.2017 34.3977 77.1408C34.276 77.0191 34.276 76.8364 34.3369 76.7147L36.4678 74.0358C36.5286 73.9141 36.7113 73.9141 36.7722 73.9141C36.8939 73.9749 36.9548 74.0358 37.0157 74.1576L37.1375 77.567C37.1375 77.7497 37.0157 77.8714 36.8331 77.8714C36.8331 77.8714 36.7722 77.8714 36.7113 77.8714C36.5895 77.8106 36.5286 77.7497 36.5286 77.6279L36.5895 76.8973ZM36.5286 76.2885L36.4678 75.01L35.6763 75.9841L36.5286 76.2885Z" fill="#737373"/>
<path d="M36.8946 78.1154C36.8337 78.1154 36.7728 78.1154 36.7728 78.1154C36.5902 78.0545 36.4684 77.9328 36.4684 77.7501L36.4075 77.0804L35.3116 76.7151L34.8855 77.2631C34.7637 77.3848 34.581 77.4457 34.3984 77.3848C34.3375 77.3848 34.3375 77.3239 34.2766 77.3239C34.094 77.2022 34.0331 76.8978 34.2158 76.7151L36.3466 74.0363C36.4684 73.9145 36.6511 73.8536 36.8337 73.9145C37.0164 73.9754 37.1381 74.0972 37.1381 74.2798L37.2599 77.6892C37.3208 77.8719 37.1381 78.0545 36.8946 78.1154ZM35.2508 76.3498L36.6511 76.8369L36.7119 77.6892C36.7119 77.7501 36.7728 77.811 36.8337 77.8719H36.8946C37.0164 77.8719 37.0772 77.811 37.0772 77.6892L36.9555 74.2798C36.9555 74.2189 36.8946 74.158 36.8337 74.0972C36.7728 74.0972 36.6511 74.0972 36.6511 74.158L34.5202 76.8369C34.4593 76.8978 34.4593 77.0195 34.581 77.0804H34.6419C34.7028 77.0804 34.7637 77.0804 34.8246 77.0195L35.2508 76.3498ZM36.6511 76.4716L35.4943 76.1063L36.5902 74.7669L36.6511 76.4716ZM35.9205 75.9236L36.4075 76.1063L36.3466 75.3757L35.9205 75.9236Z" fill="#737373"/>
<path d="M42.0073 75.556C42.0073 75.3734 42.1899 75.3125 42.3726 75.3125C42.5552 75.3125 42.677 75.4952 42.6161 75.6778L42.0073 78.8437C42.0073 79.0264 41.8246 79.0872 41.642 79.0872C41.4593 79.0263 41.3984 78.9046 41.3984 78.7219L42.0073 75.556Z" fill="#737373"/>
<path d="M41.7012 79.2074H41.6404C41.5186 79.2074 41.4577 79.1465 41.3968 79.0247C41.3359 78.903 41.3359 78.8421 41.3359 78.7203L41.9448 75.5544C41.9448 75.4326 42.0056 75.3718 42.1274 75.3109C42.2492 75.25 42.3101 75.25 42.4318 75.25C42.5536 75.25 42.6145 75.3109 42.7362 75.4327C42.7971 75.5544 42.7971 75.6153 42.7971 75.7371L42.1883 78.903C42.1883 79.0247 42.1274 79.0856 42.0056 79.1465C41.8839 79.1465 41.7621 79.2074 41.7012 79.2074ZM42.3101 75.4327C42.2492 75.4327 42.2492 75.4327 42.1883 75.4327C42.1274 75.4327 42.1274 75.4935 42.1274 75.5544L41.5186 78.7203C41.5186 78.7812 41.5186 78.8421 41.5186 78.8421C41.5186 78.903 41.5795 78.903 41.6404 78.903C41.7012 78.903 41.7621 78.903 41.7621 78.903C41.823 78.903 41.823 78.8421 41.823 78.7812L42.4318 75.6153C42.4318 75.5544 42.4318 75.4935 42.4318 75.4935C42.4318 75.4935 42.3709 75.4327 42.3101 75.4327Z" fill="#737373"/>
<path d="M46.5116 79.4531L46.7551 76.2263C46.7551 76.0436 46.9378 75.9219 47.0596 75.9219C47.2422 75.9219 47.364 76.1045 47.364 76.2263L47.1204 79.1487L48.5816 79.2704C48.7643 79.2704 48.886 79.4531 48.886 79.5748C48.886 79.7575 48.7034 79.8793 48.5816 79.8793L46.816 79.7575C46.5725 79.7575 46.4507 79.5748 46.5116 79.4531Z" fill="#737373"/>
<path d="M48.5808 79.9978L46.7543 79.876C46.5108 79.876 46.3281 79.6325 46.3281 79.4498L46.5717 76.2231C46.5717 76.1013 46.6325 75.9795 46.6934 75.9186C46.7543 75.8578 46.8761 75.7969 46.9978 75.7969C47.1196 75.7969 47.2414 75.8578 47.3022 75.9186C47.3631 75.9795 47.424 76.1013 47.424 76.2231L47.1805 79.0237L48.5199 79.1454C48.6417 79.1454 48.7026 79.2063 48.8243 79.2672C48.8852 79.3281 48.9461 79.4498 48.9461 79.5716C48.9461 79.876 48.7634 79.9978 48.5808 79.9978ZM46.6325 79.4498C46.6325 79.5716 46.6934 79.6325 46.8152 79.6325L48.5808 79.7543C48.7026 79.7543 48.7634 79.6934 48.7634 79.5716C48.7634 79.5107 48.7634 79.4498 48.7026 79.4498C48.6417 79.389 48.6417 79.389 48.5808 79.389L46.9978 79.2672L47.2414 76.2231C47.2414 76.1622 47.2414 76.1013 47.1805 76.1013C47.1196 76.0404 47.1196 76.0404 47.0587 76.0404C46.9978 76.0404 46.937 76.0404 46.937 76.1013C46.8761 76.1622 46.8761 76.1622 46.8761 76.2231L46.6325 79.4498Z" fill="#737373"/>
<path d="M57.7733 77.9902C57.6516 76.8943 58.5039 75.981 59.5998 75.8593C60.0869 75.7984 60.513 75.9201 60.8783 76.1637C61.0001 76.2854 61.061 76.4681 61.0001 76.5899C60.8783 76.7116 60.6957 76.7725 60.5739 76.7116C60.3304 76.529 60.026 76.4681 59.6607 76.4681C59.2954 76.529 58.9301 76.7116 58.7474 76.9552C58.5039 77.1987 58.3821 77.564 58.443 77.9293C58.5039 78.2946 58.6866 78.599 58.9301 78.8425C59.2345 79.0861 59.5389 79.2078 59.9651 79.1469C60.3304 79.0861 60.5739 78.9643 60.8175 78.7816C60.9392 78.6599 61.1219 78.6599 61.2436 78.7816C61.3654 78.9034 61.3654 79.0861 61.2436 79.2078C60.9392 79.5122 60.513 79.6949 60.026 79.7558C58.8692 79.8166 57.8951 79.0252 57.7733 77.9902Z" fill="#737373"/>
<path d="M59.7824 79.8743C58.6865 79.8743 57.7733 79.0828 57.6515 77.9869C57.5298 76.8302 58.443 75.856 59.5998 75.7343C60.0869 75.6734 60.5739 75.7951 61.0001 76.0387C61.1827 76.1604 61.2436 76.404 61.1219 76.6475C61.0001 76.8302 60.6957 76.891 60.513 76.7693C60.2695 76.5866 59.9651 76.5257 59.6607 76.5866C59.3563 76.5866 58.991 76.7693 58.8083 77.0128C58.6257 77.2563 58.5039 77.5607 58.5039 77.926C58.5039 78.2305 58.6865 78.5349 58.9301 78.7784C59.1736 78.961 59.5389 79.0828 59.8433 79.0828C60.1477 79.0828 60.3913 78.9611 60.6348 78.7175C60.8174 78.5958 61.061 78.5958 61.2436 78.7175C61.4263 78.9002 61.3654 79.1437 61.2436 79.3264C60.8783 79.6308 60.4521 79.8743 59.9651 79.8743C59.9042 79.8743 59.8433 79.8743 59.7824 79.8743ZM57.8951 77.926C58.0168 78.9611 58.9301 79.6916 59.9651 79.5699C60.3913 79.509 60.8174 79.3263 61.1219 79.0828C61.1827 79.0219 61.1827 78.9002 61.1219 78.8393C61.061 78.7784 60.9392 78.7784 60.8783 78.8393C60.6348 79.0828 60.3304 79.2046 59.9651 79.2655C59.5998 79.3263 59.1736 79.2046 58.8692 78.9611C58.5648 78.7175 58.3821 78.3522 58.3213 77.9869C58.2604 77.6216 58.3821 77.2563 58.6865 76.891C58.9301 76.5866 59.2954 76.404 59.7216 76.3431C60.0868 76.2822 60.4521 76.404 60.6957 76.5866C60.7566 76.6475 60.8783 76.5866 60.9392 76.5257C61.0001 76.4649 60.9392 76.3431 60.8783 76.2822C60.513 76.0387 60.0868 75.9778 59.6607 75.9778C58.5648 76.0387 57.8342 76.9519 57.8951 77.926Z" fill="#737373"/>
<path d="M65.8128 78.5373L65.0822 75.4323C65.0214 75.2497 65.1431 75.1279 65.3258 75.067C65.5084 75.0061 65.6302 75.1279 65.6911 75.3105L65.9955 76.5891L67.3958 76.2847L67.0914 75.0061C67.0305 74.8235 67.1523 74.7017 67.3349 74.6408C67.5176 74.58 67.6393 74.7017 67.7002 74.8844L68.4308 77.9894C68.4917 78.172 68.3699 78.2938 68.1873 78.3547C68.0046 78.4156 67.8829 78.2938 67.822 78.1112L67.5176 76.8326L66.1172 77.137L66.4217 78.4156C66.4825 78.5982 66.3608 78.72 66.1781 78.7809C65.9955 78.8417 65.8737 78.72 65.8128 78.5373Z" fill="#737373"/>
<path d="M66.1177 78.9007C66.0568 78.9007 65.9351 78.9007 65.8742 78.8398C65.7524 78.7789 65.6915 78.6572 65.6915 78.5963L64.9609 75.4913C64.9609 75.3695 64.9609 75.2477 65.0218 75.1868C65.0827 75.0651 65.2045 75.0042 65.2654 75.0042C65.5089 74.9433 65.7524 75.0651 65.7524 75.3086L66.0568 76.4654L67.2136 76.2218L66.9092 75.0651C66.8483 74.8215 66.9701 74.6389 67.2136 74.578C67.4571 74.5171 67.7007 74.6389 67.7007 74.8824L68.4313 77.9875C68.4921 78.231 68.3704 78.4136 68.1268 78.4745C68.0051 78.4745 67.8833 78.4745 67.8224 78.4136C67.7007 78.3528 67.6398 78.231 67.6398 78.1701L67.3354 77.0133L66.1786 77.2569L66.483 78.4136C66.483 78.5354 66.483 78.6572 66.4221 78.718C66.3612 78.8398 66.2395 78.9007 66.1786 78.9007H66.1177ZM65.3871 75.1868C65.2654 75.1868 65.2654 75.2477 65.2045 75.2477C65.2045 75.3086 65.1436 75.3086 65.2045 75.3695L65.9351 78.4745C65.9351 78.5354 65.9959 78.5354 65.9959 78.5963C66.0568 78.5963 66.0568 78.6572 66.1177 78.5963C66.1786 78.5963 66.2395 78.5354 66.2395 78.5354C66.2395 78.4745 66.3004 78.4745 66.2395 78.4136L65.9351 77.0133L67.518 76.648L67.8224 78.0483C67.8224 78.1092 67.8833 78.1092 67.8833 78.1701C67.9442 78.1701 67.9442 78.231 68.0051 78.1701C68.1268 78.1701 68.1877 78.0483 68.1268 77.9266L67.3962 74.8215C67.3962 74.6998 67.2745 74.6389 67.1527 74.6998C67.0918 74.6998 67.0918 74.7607 67.031 74.7607C67.031 74.8215 66.9701 74.8215 67.031 74.8824L67.3354 76.2827L65.7524 76.648L65.448 75.2477C65.5089 75.2477 65.448 75.1868 65.3871 75.1868Z" fill="#737373"/>
<path d="M73.0553 76.4005L71.7767 73.4172C71.7159 73.2346 71.7767 73.1128 71.9594 73.0519L73.6032 72.3822C73.725 72.3213 73.9076 72.3822 73.9685 72.5649C74.0294 72.7475 73.9685 72.9302 73.7859 72.991L72.4464 73.5999L72.8117 74.5131L73.9685 74.026C74.0903 73.9652 74.2729 74.026 74.3338 74.2087C74.3947 74.3913 74.3338 74.5131 74.1512 74.6349L72.9944 75.1219L73.4206 76.0352L74.76 75.4263C74.8818 75.3655 75.0644 75.4263 75.1862 75.609C75.2471 75.7308 75.1862 75.9134 75.0035 75.9743L73.3597 76.644C73.2379 76.644 73.1162 76.5831 73.0553 76.4005Z" fill="#737373"/>
<path d="M73.3602 76.7093C73.1776 76.7093 72.9949 76.6485 72.8732 76.4658L71.5946 73.4826C71.4729 73.239 71.5946 72.9955 71.8382 72.9346L73.482 72.204C73.7255 72.0823 73.9691 72.204 74.03 72.4476C74.0908 72.6911 74.03 72.9346 73.7864 72.9955L72.5688 73.5434L72.8732 74.2132L73.9082 73.787C74.03 73.7261 74.1517 73.7261 74.2126 73.787C74.3344 73.8479 74.3953 73.9087 74.4561 74.0305C74.5779 74.274 74.4561 74.5176 74.2126 74.5784L73.1776 75.0046L73.482 75.6743L74.6997 75.1264C74.8214 75.0655 74.9432 75.0655 75.0041 75.1264C75.1258 75.1873 75.1867 75.2482 75.2476 75.3699C75.3085 75.4917 75.3085 75.6135 75.2476 75.6743C75.1867 75.7961 75.1258 75.857 75.0041 75.9179L73.3602 76.7093ZM73.1167 76.3441C73.1776 76.4049 73.2385 76.4658 73.2994 76.4658L73.3602 76.2223L73.4211 76.4049L74.9432 75.7352C75.0041 75.7352 75.0041 75.6743 75.065 75.6135C75.065 75.5526 75.065 75.4917 75.065 75.4917C75.065 75.4308 75.0041 75.4308 74.9432 75.3699C74.8823 75.3699 74.8214 75.3699 74.8214 75.3699L73.3602 75.9788L72.8732 74.822L74.1517 74.274C74.2126 74.2132 74.2735 74.1523 74.2126 74.0305C74.2126 73.9696 74.1517 73.9696 74.0908 73.9087C74.03 73.9087 73.9691 73.9087 73.9691 73.9087L72.6905 74.4567L72.2035 73.2999L73.6647 72.6911C73.7255 72.6302 73.7864 72.5693 73.7864 72.4476C73.7255 72.3258 73.6038 72.3258 73.5429 72.3258L71.8991 72.9955C71.7773 73.0564 71.7773 73.1173 71.7773 73.239L73.1167 76.3441Z" fill="#737373"/>
<path d="M78.1712 71.9612C77.5624 71.1088 77.745 69.8303 78.6583 69.1606C79.0236 68.8561 79.5106 68.7344 79.9368 68.7344C80.1195 68.7344 80.2412 68.917 80.2412 69.0388C80.2412 69.2214 80.0586 69.3432 79.9368 69.3432C79.6324 69.3432 79.328 69.4041 79.0236 69.6476C78.7191 69.8911 78.5365 70.1956 78.4756 70.5609C78.4147 70.9262 78.4756 71.2915 78.7191 71.535C78.9627 71.8394 79.2671 72.022 79.6324 72.0829C79.9977 72.1438 80.363 72.022 80.6674 71.8394C80.9109 71.6567 81.0936 71.3523 81.2153 71.0479C81.2762 70.9262 81.4589 70.8044 81.5806 70.8653C81.7633 70.9262 81.8242 71.1088 81.8242 71.2306C81.7024 71.6567 81.4589 72.022 81.0327 72.3265C80.0586 72.9962 78.78 72.8744 78.1712 71.9612Z" fill="#737373"/>
<path d="M79.754 72.8728C79.0843 72.8728 78.4755 72.5684 78.0493 72.0204C77.3796 71.1072 77.6231 69.7678 78.5364 69.0981C78.9625 68.7936 79.3887 68.6719 79.8758 68.6719C80.1193 68.6719 80.302 68.8545 80.302 69.0981C80.302 69.3416 80.1193 69.5242 79.8758 69.5242C79.5714 69.5242 79.3278 69.5851 79.0843 69.7678C78.8408 69.9504 78.6581 70.2548 78.5972 70.6201C78.5364 70.9245 78.5972 71.2898 78.8408 71.5334C79.0234 71.7769 79.3278 71.9595 79.6322 72.0204C79.9975 72.0813 80.302 71.9595 80.5455 71.7769C80.789 71.5942 80.9717 71.3507 81.0326 71.1072C81.0934 70.8637 81.337 70.7419 81.5805 70.8028C81.824 70.8637 81.9458 71.1072 81.8849 71.3507C81.7631 71.8378 81.4587 72.2031 81.0934 72.5075C80.6064 72.751 80.1802 72.8728 79.754 72.8728ZM78.2319 71.8987C78.8408 72.6901 79.9975 72.8728 80.8499 72.264C81.2152 72.0204 81.4587 71.6551 81.5805 71.229C81.5805 71.1072 81.5196 71.0463 81.4587 70.9854C81.337 70.9854 81.2761 71.0463 81.2152 71.1072C81.1543 71.4116 80.9108 71.716 80.6673 71.9595C80.3628 72.2031 79.9367 72.264 79.5714 72.264C79.2061 72.2031 78.8408 72.0204 78.5972 71.6551C78.3537 71.3507 78.2928 70.9854 78.3537 70.5592C78.4146 70.1331 78.6581 69.8286 78.9625 69.5851C79.2669 69.3416 79.5714 69.2807 79.9367 69.2807C79.9975 69.2807 80.1193 69.2198 80.1193 69.0981C80.1193 68.9763 80.0584 68.9154 79.9367 68.9154C79.5105 68.9154 79.0843 69.0372 78.719 69.2807C77.8666 69.8895 77.684 71.1072 78.2319 71.8987Z" fill="#737373"/>
<path d="M85.35 67.9477L82.8538 65.9385C82.7321 65.8168 82.6712 65.6341 82.7929 65.5124C82.9147 65.3906 83.0973 65.3906 83.2191 65.4515L84.4368 66.4256L84.1324 63.9294C84.1324 63.7468 84.2541 63.625 84.3759 63.625C84.5585 63.625 84.6803 63.7468 84.6803 63.8685L84.8629 65.5732L86.8721 65.6341C87.0547 65.6341 87.1765 65.7559 87.1765 65.9385C87.1765 65.9994 87.1765 66.0603 87.1156 66.1212C87.0547 66.1821 86.9938 66.243 86.8721 66.243L84.9238 66.1821L85.0456 66.9736L85.6544 67.4606C85.7762 67.5824 85.8371 67.765 85.7153 67.8868C85.6544 68.0694 85.4718 68.0694 85.35 67.9477Z" fill="#737373"/>
<path d="M85.5339 68.1255C85.4121 68.1255 85.3513 68.0646 85.2904 68.0037L82.7942 65.9946C82.6115 65.8728 82.6115 65.5684 82.7333 65.3858C82.8551 65.2031 83.1595 65.2031 83.3421 65.3249L84.3163 66.1163L84.0727 63.9246C84.0727 63.8028 84.0727 63.681 84.1336 63.6202C84.1945 63.5593 84.3163 63.4984 84.438 63.4375C84.6816 63.4375 84.8642 63.5593 84.9251 63.8028L85.1077 65.3858L86.9951 65.4466C87.1169 65.4466 87.1777 65.5075 87.2995 65.5684C87.3604 65.6293 87.4213 65.751 87.4213 65.8728C87.4213 65.9946 87.4213 66.0555 87.3604 66.1163C87.2995 66.2381 87.1777 66.2381 87.056 66.2381L85.2295 66.1772L85.2904 66.7861L85.8383 67.2122C85.8992 67.2731 85.9601 67.3949 86.021 67.5167C86.021 67.6384 86.021 67.7602 85.9601 67.8211C85.7774 68.0646 85.6557 68.1255 85.5339 68.1255ZM83.0377 65.5684C82.9768 65.5684 82.9159 65.5684 82.9159 65.6293C82.8551 65.6902 82.8551 65.8119 82.9159 65.8728L85.4121 67.8819C85.473 67.8819 85.473 67.9428 85.5339 67.9428C85.5948 67.9428 85.5948 67.9428 85.6557 67.8819C85.6557 67.8211 85.7166 67.8211 85.7166 67.7602C85.7166 67.6993 85.7166 67.6993 85.6557 67.6384L84.986 67.1514L84.8642 66.1772L86.9342 66.2381C86.9951 66.2381 87.056 66.2381 87.056 66.1772C87.056 66.1163 87.1169 66.1163 87.1169 66.0555C87.1169 65.9946 87.1169 65.9337 87.056 65.9337C86.9951 65.8728 86.9951 65.8728 86.9342 65.8728L84.8033 65.8119L84.6207 63.9246C84.6207 63.8028 84.4989 63.7419 84.438 63.7419C84.3163 63.7419 84.2554 63.8637 84.2554 63.9246L84.5598 66.7252L83.0986 65.5684C83.0986 65.5684 83.0986 65.5684 83.0377 65.5684Z" fill="#737373"/>
<path d="M10.2302 54.063C8.22107 54.4283 6.15105 54.8544 4.14192 55.2806C2.92427 46.6353 1.64573 37.7464 0.367188 28.5531C1.46308 28.5531 2.49809 28.5531 3.59398 28.5531C4.68987 36.407 5.78576 44.0782 6.88165 51.5059C7.12518 51.445 7.36871 51.445 7.61224 51.3841C8.76901 43.5302 9.92579 35.9199 11.1434 28.4922C12.1785 28.4922 13.2743 28.4922 14.3093 28.4922C12.909 36.8331 11.5696 45.2958 10.2302 54.063Z" fill="#737373"/>
<path d="M3.8965 55.6473L3.83562 55.3428C2.61796 46.7584 1.33942 37.7477 0.0608828 28.6153L0 28.3109H3.83562L3.8965 28.5544C4.93151 36.2256 6.0274 43.836 7.12329 51.2028L7.30594 51.1419C8.40183 43.6533 9.61948 36.043 10.7763 28.4935L10.8371 28.25H14.6119L14.551 28.6153C13.1507 37.1389 11.8113 45.7234 10.5327 54.1252L10.4718 54.3078L10.2892 54.3687C8.28006 54.734 6.21005 55.1602 4.20091 55.5864L3.8965 55.6473ZM0.669711 28.8588C1.88737 37.7477 3.16591 46.5148 4.38356 54.8558C6.21005 54.4296 8.09741 54.0643 9.9239 53.699C11.2024 45.4798 12.481 37.078 13.8813 28.7371H11.3242C10.1065 36.2865 8.94977 43.8969 7.85388 51.3855L7.793 51.629L6.57534 51.8725L6.51446 51.5681C5.47945 44.2622 4.38356 36.5909 3.28767 28.8588H0.669711Z" fill="#737373"/>
<path d="M19.4219 52.3599C19.4828 44.4451 19.5436 36.4695 19.5436 28.5547C22.2225 28.5547 19.9698 28.5547 22.6487 28.5547C22.5878 36.3477 22.5269 44.1407 22.5269 51.9337C21.4919 52.0555 20.4569 52.1772 19.4219 52.3599Z" fill="#737373"/>
<path d="M19.1172 52.7249L19.239 28.25H22.9528L22.831 52.2378L22.5875 52.2987C21.5525 52.4205 20.5175 52.6031 19.4825 52.7249H19.1172ZM19.8478 28.8588L19.726 52.0552C20.5784 51.9334 21.4307 51.8116 22.2222 51.6899L22.344 28.8588H19.8478Z" fill="#737373"/>
<path d="M31.7206 50.8362C30.6856 50.9579 29.6506 51.0188 28.5547 51.1406C28.6156 43.5911 28.6156 36.0417 28.6765 28.4922C31.1726 28.4922 33.7297 28.4922 36.2259 28.4922C37.5653 29.649 38.8439 30.7449 40.1833 31.8407C40.1833 34.3369 40.1833 36.8331 40.1833 39.3293C39.2701 40.1817 38.2959 41.0949 37.3827 41.9473C38.9048 44.687 40.4268 47.3659 41.9489 50.0447C40.7921 50.1056 39.6354 50.1665 38.4786 50.2273C37.1392 47.8529 35.7997 45.4785 34.4603 43.1041C33.5471 43.1649 32.6338 43.2258 31.7206 43.2867C31.7815 45.8438 31.7815 48.34 31.7206 50.8362ZM31.7815 40.6079C32.8165 40.547 33.8515 40.4861 34.9474 40.4252C35.678 39.7555 36.4086 39.0249 37.0783 38.3552C37.0783 36.5287 37.0783 34.7022 37.0783 32.9366C36.4086 32.3278 35.678 31.7799 35.0083 31.171C33.9733 31.171 32.8774 31.171 31.8424 31.2319C31.8424 34.3978 31.8424 37.5028 31.7815 40.6079Z" fill="#737373"/>
<path d="M28.3086 51.5072L28.4304 28.25H36.406L36.4669 28.3109C37.8063 29.4677 39.0849 30.5635 40.4243 31.6594L40.546 31.7812L40.4852 39.5742H40.4243C39.5719 40.3657 38.6587 41.218 37.8063 42.0704C39.1457 44.5057 40.6069 47.0628 42.2508 49.9852L42.4943 50.4113H42.0072C40.8505 50.4722 39.6937 50.5331 38.5369 50.594H38.3543L38.2325 50.4113C36.8322 47.9151 35.5536 45.6625 34.336 43.4707C33.6054 43.5316 32.8139 43.5316 32.0833 43.5925L32.0224 51.1419H31.718C30.683 51.2637 29.648 51.3246 28.613 51.4463L28.3086 51.5072ZM29.0392 28.8588L28.9174 50.8375C29.7698 50.7766 30.6221 50.6549 31.4745 50.594L31.5354 43.0445H31.8398C32.753 42.9836 33.6663 42.9228 34.5795 42.8619H34.7622L34.8839 43.0445C36.1016 45.2363 37.3801 47.5498 38.7804 49.9852C39.6937 49.9243 40.6069 49.8634 41.581 49.8025C39.9981 47.0019 38.5978 44.5057 37.2584 42.1313L37.1366 41.9486L37.3192 41.766C38.2325 40.9136 39.1457 40.0613 40.059 39.2089V31.9639C38.7804 30.9288 37.5628 29.833 36.2842 28.7979L29.0392 28.8588ZM31.4745 40.9745L31.5354 30.9897L35.1275 30.9288L35.1883 30.9897C35.8581 31.5986 36.5887 32.1465 37.2584 32.7553L37.3801 32.8771V38.6001L37.2584 38.661C36.5278 39.3307 35.8581 40.0004 35.1275 40.731L35.0666 40.7919H34.9448C33.9098 40.8527 32.8748 40.9136 31.8398 40.9745H31.4745ZM32.1442 31.5986L32.0833 40.3048C32.9966 40.2439 33.9098 40.2439 34.7622 40.183C35.4319 39.5742 36.1016 38.9045 36.7104 38.2957V33.1206C36.1016 32.5727 35.4319 32.0856 34.8231 31.5377L32.1442 31.5986Z" fill="#737373"/>
<path d="M49.3752 28.4922C49.3752 34.2152 49.3752 39.8773 49.3752 45.6003C50.0449 46.2091 50.7146 46.757 51.3235 47.3659C51.9932 47.3659 52.7238 47.3659 53.3935 47.3659C54.0632 46.757 54.7329 46.1482 55.3417 45.6003C55.3417 39.9382 55.3417 34.2152 55.3417 28.5531C56.3767 28.5531 57.4118 28.5531 58.4468 28.5531C58.4468 34.5805 58.4468 40.6079 58.4468 46.6353C57.2291 47.7312 55.9506 48.8879 54.7329 49.9838C53.0891 49.9838 51.5061 49.9838 49.8623 50.0447C48.6446 48.9488 47.3661 47.792 46.1484 46.6961C46.1484 40.6687 46.1484 34.6414 46.2093 28.5531C47.3052 28.4922 48.3402 28.4922 49.3752 28.4922Z" fill="#737373"/>
<path d="M49.7988 50.2255L49.738 50.1646C48.5203 49.0687 47.2418 47.9119 46.0241 46.816L45.9023 46.7551L45.9632 28.1859H49.6771V45.4157L51.4427 46.9987C52.0515 46.9987 52.6603 46.9987 53.2692 46.9987C53.878 46.4507 54.4868 45.9028 55.0348 45.3548V28.125H58.7486V28.4294V46.6334L58.6269 46.6943C57.4092 47.7901 56.1915 48.9469 54.913 50.0428L54.8521 50.1037H54.7303C53.1474 50.1037 51.5036 50.1037 49.8597 50.1646L49.7988 50.2255ZM46.5112 46.4507C47.6679 47.4857 48.8856 48.5816 50.0424 49.6166C51.5644 49.6166 53.1474 49.5557 54.6695 49.5557C55.8262 48.4599 57.0439 47.4248 58.2007 46.329V28.7338H55.7045V45.5984L55.5827 45.6592C54.913 46.2681 54.2433 46.8769 53.6345 47.4249L53.5736 47.4857H53.4518C52.7821 47.4857 52.0515 47.4857 51.3818 47.4857H51.26L49.1291 45.5375V28.6121H46.6329L46.5112 46.4507Z" fill="#737373"/>
<path d="M67.3925 45.906C68.0622 46.5148 68.7319 47.1846 69.4625 47.7934C70.1931 47.8543 70.9846 47.9151 71.7151 47.9151C72.3849 47.3672 73.0546 46.8193 73.7243 46.2104C73.7243 45.0537 73.7243 43.8969 73.7243 42.6792C70.6193 40.6701 67.5142 38.7218 64.4092 36.8954C64.4092 35.0689 64.4092 33.3033 64.4092 31.4768C65.6269 30.4418 66.8445 29.3459 68.0622 28.25C69.6451 28.25 71.289 28.25 72.8719 28.25C74.0896 29.3459 75.3681 30.4418 76.5858 31.5986C76.5858 32.7553 76.5858 33.9121 76.5858 35.008C75.5508 34.9471 74.5158 34.9471 73.4807 34.9471C73.4807 34.1556 73.4807 33.425 73.4807 32.6336C72.811 32.0247 72.2022 31.4768 71.5325 30.868C70.8019 30.868 70.0713 30.868 69.3407 30.868C68.7319 31.4159 68.0622 32.0247 67.4534 32.5727C67.4534 33.5468 67.4534 34.5818 67.4534 35.5559C70.5584 37.4433 73.6025 39.3916 76.7075 41.4007C76.7075 43.4098 76.7075 45.419 76.7684 47.4281C75.4899 48.4631 74.2722 49.4981 72.9937 50.5331C71.3499 50.4113 69.706 50.2896 68.0622 50.1678C66.7836 48.9502 65.5051 47.7934 64.2266 46.6366C64.2266 45.2972 64.2266 44.0186 64.2266 42.6792C65.2616 42.7401 66.2966 42.7401 67.3316 42.801C67.3925 43.9578 67.3925 44.9319 67.3925 45.906Z" fill="#737373"/>
<path d="M73.1152 51.0169H72.9934C71.3496 50.8952 69.7057 50.7734 68.0619 50.6516H67.9401L67.8793 50.5908C66.6616 49.434 65.3831 48.2772 64.0436 47.0596L63.9219 46.9987V42.6151H64.2263C65.2613 42.676 66.2963 42.676 67.3313 42.7369H67.6357V45.8419C68.2446 46.3898 68.8534 46.9987 69.5231 47.6075C70.1928 47.6684 70.8625 47.6684 71.5931 47.7293C72.2019 47.2422 72.8108 46.6943 73.4196 46.2072V42.9804C70.619 41.1539 67.6357 39.3274 64.2872 37.2574L64.1654 37.1965V31.4736L64.2872 31.4127C65.5048 30.3777 66.7225 29.2818 67.9401 28.1859L68.001 28.125H73.0543L73.1152 28.1859C74.3328 29.2818 75.6114 30.3777 76.829 31.5344L76.9508 31.5953V35.4918H76.6464C75.6114 35.4309 74.5764 35.4309 73.5414 35.4309H73.2369V32.9956C72.6281 32.4477 72.0802 31.9606 71.4713 31.4127H69.5231C68.9751 31.8997 68.3663 32.4477 67.8184 32.9347V35.6136C71.1669 37.6227 74.1502 39.5101 76.9508 41.3975L77.0726 41.4583L77.1334 47.7901L77.0117 47.9119C75.7331 48.9469 74.5155 49.9819 73.2369 51.0169H73.1152ZM68.2446 50.0428C69.8275 50.1646 71.4105 50.2255 72.9325 50.4081C74.1502 49.434 75.307 48.4599 76.5246 47.4857L76.4637 41.7627C73.6631 39.9363 70.6799 38.0489 67.3313 35.9789L67.2095 35.918V32.6303L67.3313 32.5694C67.9401 32.0215 68.6098 31.4736 69.2187 30.8647L69.2796 30.8038H71.654L71.7149 30.8647C72.3846 31.4736 72.9934 32.0215 73.6631 32.6303L73.7849 32.6912V34.8221C74.6372 34.8221 75.4287 34.883 76.2811 34.883V31.8997C75.1243 30.8038 73.9675 29.7688 72.7499 28.7338H68.1837C67.0269 29.7688 65.8701 30.8038 64.7134 31.778V36.8921C68.1228 38.9013 71.106 40.7886 73.9067 42.6151L74.0284 42.676V46.5116L73.9067 46.6334C73.2369 47.1813 72.5672 47.7293 71.8975 48.3381L71.7758 48.399H71.654C70.9234 48.3381 70.1319 48.2772 69.4013 48.2772H69.2796L69.2187 48.2163C68.549 47.5466 67.8793 46.9378 67.1487 46.329L67.0269 46.2681V43.5283C66.1745 43.4675 65.3831 43.4675 64.5307 43.4675V46.9378C65.8701 47.851 67.0878 48.9469 68.2446 50.0428Z" fill="#737373"/>
<path d="M82.0664 38.7734C84.867 38.9561 87.6676 39.0779 90.4682 39.3214C90.4682 40.1737 90.4682 41.0261 90.4682 41.8785C87.6676 41.6349 84.867 41.3914 82.0664 41.2087C82.0664 40.4173 82.0664 39.6258 82.0664 38.7734Z" fill="#737373"/>
<path d="M90.7724 42.2451H90.468C87.6674 42.0016 84.8667 41.758 82.0661 41.5754H81.7617V38.5312H82.0661C84.8667 38.7139 87.6674 38.8357 90.468 39.0792H90.7724V42.2451ZM82.3705 40.9666C84.9276 41.1492 87.5456 41.3319 90.1635 41.5754V39.6271C87.6065 39.4445 84.9885 39.2618 82.3705 39.1401V40.9666Z" fill="#737373"/>
<path d="M100.266 42.0707C100.205 42.0707 100.205 42.0707 100.144 42.0707C98.8047 46.0281 97.4653 49.8637 96.065 53.5775C94.9691 53.3949 93.8732 53.2122 92.7773 53.0296C94.4212 48.8287 96.0041 44.5669 97.648 40.0615C96.2477 36.1042 94.9082 32.2685 93.5079 28.5547C94.6038 28.5547 95.7606 28.5547 96.8565 28.5547C97.9524 31.7815 99.0483 35.0691 100.144 38.4786C100.205 38.4786 100.205 38.4786 100.266 38.4786C101.301 35.2518 102.397 31.9641 103.432 28.5547C104.528 28.5547 105.624 28.5547 106.72 28.5547C105.38 32.6338 104.102 36.6521 102.762 40.4877C104.406 45.4192 105.989 50.5943 107.572 55.952C106.476 55.7084 105.38 55.4649 104.284 55.2214C102.945 50.716 101.605 46.3325 100.266 42.0707Z" fill="#737373"/>
<path d="M107.998 56.3762L107.511 56.2545C106.415 56.0109 105.32 55.7674 104.224 55.5239L104.041 55.463L103.98 55.2804C102.763 51.1403 101.423 46.9394 100.145 42.7994C98.866 46.4523 97.5875 50.1053 96.3089 53.6365L96.2481 53.88L96.0045 53.8192C94.9086 53.6365 93.8128 53.4539 92.7169 53.2712L92.3516 53.2103L92.4733 52.845C94.1172 48.6441 95.761 44.3214 97.2831 39.9988C95.9437 36.224 94.6042 32.3884 93.2039 28.6137L93.0213 28.1875H97.0395L97.1004 28.3701C98.1354 31.4143 99.1704 34.5193 100.145 37.6243C101.119 34.5802 102.093 31.5361 103.067 28.431L103.128 28.1875H107.024L106.903 28.6137C105.624 32.6319 104.285 36.5893 103.006 40.4249C104.65 45.4782 106.294 50.6533 107.816 55.7674L107.998 56.3762ZM104.528 54.9759C105.38 55.1586 106.233 55.3412 107.085 55.5848C105.563 50.5924 104.041 45.5391 102.397 40.6685L102.336 40.5467L102.397 40.4249C103.676 36.7111 104.954 32.8146 106.172 28.9181H103.554C102.519 32.2058 101.484 35.4326 100.449 38.5985L100.388 38.842L99.7793 38.7811L99.7184 38.5985C98.6834 35.3717 97.5875 32.084 96.5525 28.8572H93.8736C95.2131 32.5711 96.6134 36.2849 97.8919 39.9379L97.9528 40.0596L97.8919 40.1814C96.3698 44.4432 94.726 48.6441 93.143 52.7842C94.0563 52.9059 94.9086 53.0886 95.8219 53.2712C97.1613 49.5574 98.5007 45.7826 99.7793 42.0079L99.8401 41.7644L100.388 41.8252L100.449 42.0079C101.91 46.2697 103.25 50.6533 104.528 54.9759Z" fill="#737373"/>
<path d="M36.3459 21.3114H26.3002C25.9349 21.3114 25.6914 21.0679 25.6914 20.7026C25.6914 20.3373 25.9349 20.0938 26.3002 20.0938H36.3459C36.7112 20.0938 36.9547 20.3373 36.9547 20.7026C36.9547 21.007 36.7112 21.3114 36.3459 21.3114Z" fill="#737373"/>
<path d="M81.3342 21.3114H71.2885C70.9232 21.3114 70.6797 21.0679 70.6797 20.7026C70.6797 20.3373 70.9232 20.0938 71.2885 20.0938H81.3342C81.6995 20.0938 81.943 20.3373 81.943 20.7026C81.943 21.007 81.6995 21.3114 81.3342 21.3114Z" fill="#737373"/>
<path d="M63.0105 10.2338C62.9496 10.1729 62.9496 10.1729 62.8887 10.112L54.4265 4.51077C54.0612 4.26724 53.5742 4.26724 53.2089 4.51077L44.7467 10.112L44.6858 10.1729C44.6858 10.1729 44.6858 10.1729 44.6858 10.2338C44.6858 10.2946 44.6249 10.2946 44.6249 10.3555V20.9491C44.6249 21.2535 44.7467 21.558 44.9902 21.8015C45.2337 22.045 45.4772 22.1668 45.8425 22.1668H61.9146C62.219 22.1668 62.5234 22.045 62.7669 21.8015C62.9496 21.558 63.1322 21.3144 63.1322 20.9491V10.4164C63.0105 10.3555 63.0105 10.2946 63.0105 10.2338ZM53.5742 5.05872C53.6959 4.93695 53.9394 4.93695 54.0612 5.05872L62.0973 10.3555L54.183 15.4088C53.9394 15.5306 53.635 15.5306 53.4524 15.4088L45.5381 10.3555L53.5742 5.05872ZM45.7816 21.4971L51.139 16.0176C51.2607 15.8959 51.2607 15.7132 51.139 15.5306C51.0172 15.4088 50.8346 15.4088 50.6519 15.5306L45.2337 20.9491V20.8882V10.9644L53.0871 15.9567C53.3306 16.0785 53.5742 16.1394 53.8177 16.1394C54.0612 16.1394 54.3047 16.0785 54.5482 15.9567L62.4017 10.9644V20.9491V21.01L56.9834 15.5914C56.8616 15.4697 56.679 15.4697 56.4964 15.5914C56.3746 15.7132 56.3746 15.8959 56.4964 16.0785L61.9146 21.4971H61.8538H45.7816Z" fill="#737373"/>
<path d="M52.4196 9.80617H55.2811C55.342 9.80617 55.4637 9.74529 55.5246 9.68441L56.377 8.83205L56.9249 11.998C56.9249 12.1806 57.1076 12.2415 57.2293 12.2415H57.2902C57.4729 12.1806 57.5946 12.0588 57.5337 11.8762L56.864 8.10145C56.864 7.97969 56.7423 7.85792 56.6205 7.85792C56.4987 7.79704 56.377 7.85792 56.3161 7.9188L55.0984 9.13646H52.5413L51.2019 7.79704C51.141 7.73616 50.9584 7.67527 50.8975 7.73616C50.7757 7.79704 50.7149 7.85792 50.654 7.97969L49.9843 11.8762C49.9843 12.0588 50.0452 12.2415 50.2278 12.2415C50.4104 12.2415 50.5931 12.1806 50.5931 11.998L51.141 8.71028L52.1152 9.68441C52.2369 9.80617 52.3587 9.80617 52.4196 9.80617Z" fill="#737373"/>
<path d="M52.4188 11.8203C52.4797 11.8812 52.5406 11.8812 52.6015 11.8812C52.7233 11.8812 52.7841 11.8203 52.9059 11.7595C53.0277 11.6377 52.9668 11.3942 52.7841 11.3333L52.1144 10.9071C51.9927 10.7853 51.7491 10.8462 51.6882 11.0289C51.5665 11.1506 51.6274 11.3942 51.81 11.455L52.4188 11.8203Z" fill="#737373"/>
<path d="M55.5223 10.8476L54.8526 11.2738C54.7308 11.3956 54.6699 11.5782 54.7308 11.7C54.7917 11.8217 54.9135 11.8217 55.0352 11.8217C55.0961 11.8217 55.157 11.8217 55.2179 11.7609L55.8876 11.3347C56.0093 11.2129 56.0702 11.0303 56.0093 10.9085C55.8876 10.7867 55.644 10.7259 55.5223 10.8476Z" fill="#737373"/>
<path d="M54.488 13.5776V13.9429C54.488 14.1255 54.6098 14.2473 54.7924 14.2473C54.9751 14.2473 55.0968 14.1255 55.0968 13.9429V13.5776H55.523C55.7057 13.5776 55.8274 13.4558 55.8274 13.2732C55.8274 13.0905 55.7057 12.9688 55.523 12.9688H51.9918C51.8092 12.9688 51.6874 13.0905 51.6874 13.2732C51.6874 13.4558 51.8092 13.5776 51.9918 13.5776H52.418V13.9429C52.418 14.1255 52.5398 14.2473 52.7224 14.2473C52.905 14.2473 53.0268 14.1255 53.0268 13.9429V13.5776H54.488Z" fill="#737373"/>
<path d="M35.7371 59.3583H26.3002C25.9349 59.3583 25.6914 59.1147 25.6914 58.7495C25.6914 58.3842 25.9349 58.1406 26.3002 58.1406H35.7371C36.1024 58.1406 36.3459 58.3842 36.3459 58.7495C36.3459 59.1147 36.0415 59.3583 35.7371 59.3583Z" fill="#737373"/>
<path d="M81.3347 59.3583H71.8979C71.5326 59.3583 71.2891 59.1147 71.2891 58.7495C71.2891 58.3842 71.5326 58.1406 71.8979 58.1406H81.3347C81.7 58.1406 81.9436 58.3842 81.9436 58.7495C81.9436 59.1147 81.7 59.3583 81.3347 59.3583Z" fill="#737373"/>
<path d="M42.557 58.0183V58.6271H41.3393V60.1492H42.8614V60.758H40.7305V55.7656C41.5219 55.7656 41.9481 55.7656 42.7396 55.7656V56.3745H41.2784V57.9574H42.557V58.0183Z" fill="#737373"/>
<path d="M42.9838 60.939H40.6094V55.7031H42.862V56.5555H41.4009V57.8949H42.6185V58.7473H41.4009V60.0258H42.9229V60.939H42.9838ZM40.8529 60.6955H42.7403V60.3302H41.2182V58.5037H42.4359V58.1384H41.2182V56.312H42.6185V55.9467H40.8529V60.6955Z" fill="#737373"/>
<path d="M44.3885 59.848L44.7538 60.2742H45.1799L45.5452 59.848V59.0565L43.7796 57.8389V56.6212L44.5102 55.8906H45.4235L46.1541 56.6212V57.4127H45.5452V56.9256L45.1799 56.5603H44.7538L44.3885 56.9256V57.5953L46.1541 58.813V60.1524L45.4235 60.9439H44.4493L43.7188 60.1524V59.2392H44.3276V59.848H44.3885Z" fill="#737373"/>
<path d="M45.4827 60.9407H44.4477L43.6562 60.0883V59.0533H44.5086V59.7839L44.813 60.1492H45.1174L45.4219 59.7839V59.1142L43.6562 57.8965V56.5571L44.4477 55.7656H45.4827L46.2742 56.5571V57.4703H45.4219V56.8615L45.1174 56.5571H44.813L44.5086 56.8615V57.4703L46.2742 58.688V60.1492L45.4827 60.9407ZM44.5695 60.6971H45.4219L46.0916 60.0274V58.8098L44.326 57.5921V56.8006L44.7521 56.3136H45.3001L45.7263 56.8006V57.2268H46.0916V56.618L45.4219 55.9483H44.5695L43.9607 56.618V57.7748L45.7263 58.9924V59.9057L45.2392 60.3927H44.6913L44.2042 59.9057V59.2968H43.8389V60.0274L44.5695 60.6971Z" fill="#737373"/>
<path d="M47.9188 56.3761H47.0664V55.8281H49.4408V56.3761H48.5885V60.8205H47.9796V56.3761H47.9188Z" fill="#737373"/>
<path d="M48.5875 60.939H47.7352V56.4946H46.8828V55.7031H49.5008V56.4946H48.6484V60.939H48.5875ZM48.0396 60.6955H48.4049V56.2511H49.2572V55.9467H47.1263V56.2511H47.9787V60.6955H48.0396Z" fill="#737373"/>
<path d="M50.3477 55.8281H51.9306L52.6612 56.5587V60.029L51.9306 60.7596C51.3827 60.7596 50.8956 60.7596 50.3477 60.7596V55.8281ZM51.6871 60.2117L52.0524 59.8464V56.8631L51.6871 56.4978H50.9565V60.2726H51.6871V60.2117Z" fill="#737373"/>
<path d="M51.9922 60.9407H50.2266V55.7656H51.9922L52.7836 56.5571V60.1492L51.9922 60.9407ZM50.4701 60.6971H51.8704L52.5401 60.0274V56.618L51.8704 55.9483H50.4701V60.6971ZM51.7486 60.3318H50.8354V56.3136H51.7486L52.2357 56.7397V59.7839L51.7486 60.3318ZM51.0789 60.0883H51.6269L51.9313 59.7839V56.9224L51.6269 56.618H51.0789V60.0883Z" fill="#737373"/>
<path d="M56.498 55.8281V60.2726H57.2286V60.8205H55.0977V60.2726H55.8282V56.437H55.1585V55.8281H56.498Z" fill="#737373"/>
<path d="M57.351 60.939H54.9766V60.1476H55.7072V56.5555H55.0374V55.7031H56.6204V60.0867H57.351V60.939ZM55.281 60.6955H57.1683V60.3911H56.4377V56.0075H55.4027V56.3728H56.0116V60.452H55.281V60.6955Z" fill="#737373"/>
<path d="M58.7501 58.7521L58.0195 58.0215V56.6212L58.7501 55.8906H59.6634L60.394 56.6212V60.1524L59.6634 60.883H58.7501L58.0804 60.1524V59.4827H58.6892V59.9089L58.9937 60.2742H59.4198L59.7851 59.9089V58.813H58.7501V58.7521ZM59.846 58.1433V56.8039L59.4807 56.3777H59.0545L58.6892 56.8039V57.7171L59.0545 58.1433H59.846Z" fill="#737373"/>
<path d="M59.7249 60.942H58.6899L57.9593 60.1505V59.2982H58.8117V59.7852L59.0552 60.0288H59.3596L59.664 59.7244V58.7502H58.6899L57.8984 57.8979V56.3758L58.6899 55.5234H59.7249L60.5164 56.3758V59.9679L59.7249 60.942ZM58.8117 60.6985H59.664L60.3337 60.0288V56.6193L59.664 55.9496H58.8117L58.142 56.6193V57.8979L58.8117 58.5676H59.9076V59.8461L59.4814 60.2723H58.9334L58.5073 59.8461V59.4808H58.142V59.9679L58.8117 60.6985ZM59.9685 58.2632H58.9943L58.5681 57.7761V56.7411L58.9943 56.254H59.5423L59.9685 56.7411V58.2632ZM59.0552 58.0196H59.664V56.8629L59.3596 56.5584H59.0552L58.7508 56.8629V57.7152L59.0552 58.0196Z" fill="#737373"/>
<path d="M62.2814 58.7521L61.5508 58.0215V56.6212L62.2814 55.8906H63.1946L63.9252 56.6212V60.1524L63.1946 60.883H62.2814L61.6117 60.1524V59.4827H62.2205V59.9089L62.5249 60.2742H62.9511L63.3164 59.9089V58.813H62.2814V58.7521ZM63.3164 58.1433V56.8039L62.9511 56.3777H62.5249L62.1596 56.8039V57.7171L62.5249 58.1433H63.3164Z" fill="#737373"/>
<path d="M63.2562 60.942H62.2212L61.4906 60.1505V59.2982H62.3429V59.7852L62.5865 60.0288H62.8909L63.1953 59.7244V58.7502H62.2212L61.4297 57.8979V56.3758L62.2212 55.5234H63.2562L64.0476 56.3758V59.9679L63.2562 60.942ZM62.3429 60.6985H63.1953L63.865 60.0288V56.6193L63.1953 55.9496H62.3429L61.6732 56.6193V57.8979L62.3429 58.5676H63.4388V59.8461L63.0126 60.2723H62.4647L62.0385 59.8461V59.4808H61.6732V59.9679L62.3429 60.6985ZM63.4388 58.2632H62.4647L62.0385 57.7761V56.7411L62.4647 56.254H63.0126L63.4388 56.7411V58.2632ZM62.5865 58.0196H63.1953V56.8629L62.8909 56.5584H62.5865L62.282 56.8629V57.7152L62.5865 58.0196Z" fill="#737373"/>
<path d="M66.4837 56.618V56.3745H65.4487V56.8615H64.8398V55.7656H67.0925V56.6789L65.7531 60.758H65.1443L66.4837 56.618Z" fill="#737373"/>
<path d="M65.8755 60.939H64.9623L66.3626 56.6164V56.5555H65.5711V57.0425H64.7188V55.7031H67.2149V56.7381L65.8755 60.939ZM65.2667 60.6955H65.632L66.9105 56.7381V56.0075H64.9014V56.8599H65.2667V56.3728H66.5452V56.7381L65.2667 60.6955Z" fill="#737373"/>
</g>
<defs>
<clipPath id="clip0_1_176">
<rect width="108" height="80" fill="white"/>
</clipPath>
</defs>
</svg>
